<svg width="230" height="206" viewBox="0 0 230 206" fill="none" xmlns="http://www.w3.org/2000/svg">
<g clip-path="url(#clip0_263_877)">
<path d="M88.1723 120.493H33.7379L33.1709 103.765C33.0575 100.987 35.2689 98.6622 37.9906 98.5488C38.2741 98.5488 38.501 98.5488 38.7845 98.6055L70.4811 102.461C80.234 102.461 88.1723 110.4 88.1723 120.209V120.493Z" fill="#4462FE"/>
<path d="M63.9037 61.1252H25.9697C23.8717 61.1252 22.114 62.8263 22.114 64.981V102.915C22.114 105.013 23.815 106.771 25.9697 106.771H63.9037C66.0016 106.771 67.7594 105.07 67.7594 102.915V64.981C67.7594 62.883 66.0584 61.1252 63.9037 61.1252Z" fill="#CCCCCC"/>
<path d="M55.3416 89.5332L37.4236 92.992C35.2122 93.4457 33.0575 91.9714 32.6606 89.76L31.2998 82.6722C30.8461 80.4608 32.3204 78.3061 34.5318 77.9092L52.4498 74.3936C54.6612 73.94 56.8159 75.4143 57.2128 77.6257L58.5736 84.7135C59.0273 86.9249 57.553 89.0796 55.3416 89.5332Z" fill="#3F3D56"/>
<path d="M51.7693 81.1412L38.1041 83.8062C37.5937 83.9196 37.0834 83.5794 36.97 83.0691C36.8566 82.5588 37.1968 82.0484 37.7071 81.935L51.3724 79.27C51.8827 79.1566 52.3931 79.4968 52.5065 80.0072C52.6199 80.5742 52.2797 81.0845 51.7693 81.1412Z" fill="white"/>
<path d="M49.1043 85.1103L42.0165 86.4712C41.5062 86.5846 40.9959 86.2444 40.8825 85.734C40.7691 85.2237 41.1093 84.7134 41.6196 84.6L48.7074 83.2391C49.2177 83.1257 49.7281 83.4659 49.8415 83.9763C50.0116 84.4866 49.6714 84.9969 49.1043 85.1103Z" fill="white"/>
<path d="M67.7594 64.981V70.0275H22.114V64.981C22.114 62.883 23.815 61.1252 25.9697 61.1252H63.9037C66.0584 61.1252 67.7594 62.883 67.7594 64.981Z" fill="#B3B3B3"/>
<path d="M158.937 71.6152C157.916 68.3831 154.514 66.6254 151.339 67.5893C150.999 67.7027 150.658 67.8161 150.318 67.9862L98.0953 49.2744L95.7704 62.316L147.823 76.605C149.581 79.4968 153.323 80.4041 156.215 78.703C158.653 77.2287 159.788 74.2802 158.937 71.6152Z" fill="#FFB8B8"/>
<path opacity="0.2" d="M158.937 71.6152C157.916 68.3831 154.514 66.6254 151.339 67.5893C150.999 67.7027 150.658 67.8161 150.318 67.9862L98.0953 49.2744L95.7704 62.316L147.823 76.605C149.581 79.4968 153.323 80.4041 156.215 78.703C158.653 77.2287 159.788 74.2802 158.937 71.6152Z" fill="black"/>
<path d="M107.338 51.6559L102.405 64.5274C101.838 65.9449 100.307 66.6254 98.8891 66.115C98.7757 66.0583 98.6623 66.0016 98.5489 65.9449L86.5847 59.1974C82.6722 57.6664 80.7443 53.3003 82.2753 49.3878C83.8062 45.4754 88.1723 43.5475 92.0281 45.0784L105.41 48.027C106.884 48.3672 107.791 49.7847 107.508 51.259C107.451 51.3724 107.394 51.5425 107.338 51.6559Z" fill="#4462FE"/>
<path d="M163.02 83.5227L144.308 92.0281L146.746 101.271C151.509 119.132 152.756 137.73 150.432 156.045L164.097 158.88L175.437 129.962L171.468 97.0746L163.02 83.5227Z" fill="#4462FE"/>
<path d="M199.763 126.333C187.458 126.333 177.422 135.292 176.968 146.462H222.557C222.047 135.292 212.01 126.333 199.763 126.333Z" fill="#3F3D56"/>
<path d="M190.18 128.261C189.556 77.7391 160.751 82.3887 160.751 82.3887C160.751 82.3887 161.262 98.0953 161.545 98.6056C179.86 133.308 149.638 173.963 111.08 166.478C110.343 166.365 109.663 166.195 108.982 166.025C98.8324 163.927 92.0848 154.287 93.5591 144.024C97.3581 113.575 78.4762 114.085 78.4762 114.085H50.9188L36.5731 101.214C34.872 99.683 32.207 99.7964 30.676 101.497C30.3358 101.894 30.0523 102.348 29.8822 102.858L28.011 107.848C28.011 107.848 0.793847 110.683 3.06194 137.333H11.4539C11.4539 138.071 11.4539 138.864 11.5673 139.601L74.3936 139.091C78.0793 139.034 81.3113 142.04 81.3113 145.725C81.3113 149.411 78.3628 152.416 74.6771 152.416C74.6204 152.416 74.507 152.416 74.4503 152.416L64.3006 152.076C61.182 165.968 68.8368 175.324 77.2855 181.221C85.2238 186.665 94.6364 189.556 104.276 189.5H131.777C167.499 189.5 173.736 159.447 173.736 159.447C192.505 151.566 190.18 128.261 190.18 128.261Z" fill="#3F3D56"/>
<path d="M198.062 206.057C215.693 206.057 229.985 191.764 229.985 174.133C229.985 156.502 215.693 142.21 198.062 142.21C180.431 142.21 166.138 156.502 166.138 174.133C166.138 191.764 180.431 206.057 198.062 206.057Z" fill="#3F3D56"/>
<path d="M198.062 181.958C202.383 181.958 205.887 178.455 205.887 174.133C205.887 169.812 202.383 166.308 198.062 166.308C193.74 166.308 190.237 169.812 190.237 174.133C190.237 178.455 193.74 181.958 198.062 181.958Z" fill="white"/>
<path d="M37.0267 206.057C57.3194 206.057 73.7699 189.606 73.7699 169.314C73.7699 149.021 57.3194 132.57 37.0267 132.57C16.734 132.57 0.283508 149.021 0.283508 169.314C0.283508 189.606 16.734 206.057 37.0267 206.057Z" fill="#3F3D56"/>
<path d="M37.0267 178.329C42.0059 178.329 46.0424 174.293 46.0424 169.314C46.0424 164.334 42.0059 160.298 37.0267 160.298C32.0475 160.298 28.011 164.334 28.011 169.314C28.011 174.293 32.0475 178.329 37.0267 178.329Z" fill="white"/>
<path d="M144.364 94.5797L137.617 76.3215C136.143 72.2956 138.184 67.8728 142.21 66.3986L161.489 59.3107C168.52 56.7024 176.345 60.3314 178.953 67.3625C179.52 68.8935 179.803 70.4811 179.803 72.0688C179.803 76.2081 177.932 80.1205 174.7 82.6722C173.566 83.5794 172.262 84.3165 170.901 84.8268L144.364 94.5797Z" fill="#3F3D56"/>
<path d="M179.52 72.0121C179.52 76.038 177.705 79.8937 174.53 82.3886C165.458 80.0071 160.014 70.7079 162.453 61.6355C162.679 60.7283 163.02 59.8211 163.36 58.9705C170.561 57.3829 177.649 61.9758 179.236 69.177C179.463 70.0842 179.52 71.0481 179.52 72.0121Z" fill="#4462FE"/>
<path d="M7.93834 141.076C12.3226 141.076 15.8767 136.76 15.8767 131.436C15.8767 126.113 12.3226 121.797 7.93834 121.797C3.55412 121.797 0 126.113 0 131.436C0 136.76 3.55412 141.076 7.93834 141.076Z" fill="#4462FE"/>
<path d="M112.895 165.571H119.812L123.158 147.54H112.895V165.571Z" fill="#FFB8B8"/>
<path d="M111.08 163.303H124.745C129.565 163.303 133.478 167.216 133.478 172.035V172.319H111.08V163.303Z" fill="#2F2E41"/>
<path d="M120.946 158.2C120.89 158.2 120.776 158.2 120.72 158.2L111.08 157.519C109.663 157.406 108.642 156.159 108.755 154.741C108.755 154.514 108.812 154.287 108.925 154.117L121.797 125.199C121.967 124.689 121.967 124.122 121.683 123.611C121.4 123.101 120.946 122.761 120.436 122.591C114.369 121.003 98.8324 116.807 85.3939 111.874C79.6102 109.776 75.9813 106.714 74.6204 102.802C72.8059 97.6416 75.5276 92.9353 75.6411 92.7652L75.7545 92.5951L88.3991 93.7291L102.121 94.9199L132.173 111.023C137.39 113.859 139.601 120.209 137.163 125.653L123.328 156.726C122.874 157.576 121.967 158.2 120.946 158.2Z" fill="#2F2E41"/>
<path d="M90.5538 36.4596C98.2575 36.4596 104.503 30.2145 104.503 22.5108C104.503 14.8071 98.2575 8.56201 90.5538 8.56201C82.8501 8.56201 76.605 14.8071 76.605 22.5108C76.605 30.2145 82.8501 36.4596 90.5538 36.4596Z" fill="#FFB8B8"/>
<path d="M108.925 167.272H115.843L119.189 149.241H108.925V167.272Z" fill="#FFB8B8"/>
<path d="M107.111 165.004H120.776C125.596 165.004 129.508 168.917 129.508 173.736V174.02H107.111V165.004Z" fill="#2F2E41"/>
<path d="M116.977 159.901C116.92 159.901 116.807 159.901 116.75 159.901L107.111 159.22C105.693 159.107 104.673 157.86 104.786 156.442C104.786 156.215 104.843 155.988 104.956 155.818L117.828 126.9C117.998 126.39 117.998 125.823 117.714 125.312C117.431 124.802 116.977 124.462 116.467 124.292C110.4 122.704 94.8632 118.508 81.4247 113.575C75.6411 111.477 72.0121 108.415 70.6513 104.503C68.8368 99.3427 71.5585 94.6364 71.6719 94.4663L71.7853 94.2961L84.43 95.4302L98.152 96.6209L128.204 112.724C133.421 115.56 135.632 121.91 133.194 127.354L119.359 158.427C118.905 159.277 117.998 159.901 116.977 159.901Z" fill="#2F2E41"/>
<path d="M94.8632 44.3413L80.1206 39.238C80.1206 39.238 70.8781 46.3258 75.3009 63.9603C77.6257 73.0894 76.9452 82.6721 73.373 91.3476C72.9194 92.4249 72.4657 93.4456 71.8987 94.4662C71.8987 94.4662 88.3424 114.312 103.652 99.5694L97.6983 70.9347C97.6983 70.9914 107.054 51.9961 94.8632 44.3413Z" fill="#4462FE"/>
<path d="M92.2549 36.9133C90.2703 33.9648 88.6826 29.8255 90.894 26.9904C93.0487 24.212 97.3014 24.6089 100.59 23.3615C105.183 21.6604 107.848 16.2737 106.998 11.3972C106.147 6.52084 102.291 2.55167 97.6416 0.907296C92.992 -0.737075 87.8888 -0.113349 83.3526 1.75783C77.7958 4.08263 72.976 8.56213 70.9915 14.2891C69.0069 20.016 70.0842 26.8203 74.2235 31.1864C78.703 35.8927 85.6774 37.1402 92.1415 37.0835" fill="#2F2E41"/>
<path d="M79.3267 11.624C76.8318 13.6653 73.0327 12.758 70.311 10.9435C67.5893 9.12905 65.4346 6.63415 62.5428 5.21659C57.4396 2.77838 51.259 4.36605 46.2692 7.14447C41.2794 9.92289 36.9133 13.6653 31.64 15.8199C26.3666 17.9746 19.6757 18.088 15.7066 14.0055C13.0983 21.6036 17.1241 29.9389 24.7223 32.5472C28.8048 33.9647 33.341 33.4544 37.0834 31.243C42.867 27.7275 46.0424 20.3561 52.5065 18.4283C56.0787 17.3509 59.9345 18.2014 63.5067 19.1654C67.079 20.1293 70.8781 21.0933 74.507 20.2994C78.136 19.5056 81.5381 16.2169 81.0845 12.5312L79.3267 11.624Z" fill="#2F2E41"/>
<path d="M158.2 71.0481C156.839 67.9862 153.21 66.6253 150.148 67.9862C149.808 68.1563 149.524 68.3264 149.184 68.4965L95.0333 56.3622L94.3529 69.5739L147.767 77.3421C149.865 80.0071 153.72 80.4607 156.385 78.3627C158.653 76.6617 159.391 73.5997 158.2 71.0481Z" fill="#FFB8B8"/>
<path d="M104.559 57.6096L101.271 70.9914C100.93 72.4657 99.4561 73.3729 97.9818 72.976C97.8684 72.9193 97.6983 72.9193 97.5849 72.8626L84.8836 67.646C80.801 66.6253 78.3628 62.486 79.3834 58.4602C80.4041 54.4343 84.4867 51.9394 88.5692 52.96L102.235 54.2642C103.709 54.4343 104.843 55.7385 104.673 57.2694C104.616 57.3261 104.616 57.4395 104.559 57.6096Z" fill="#4462FE"/>
<path d="M151.963 81.5381C154.155 81.5381 155.932 79.761 155.932 77.5689C155.932 75.3768 154.155 73.5997 151.963 73.5997C149.77 73.5997 147.993 75.3768 147.993 77.5689C147.993 79.761 149.77 81.5381 151.963 81.5381Z" fill="#4462FE"/>
</g>
<defs>
<clipPath id="clip0_263_877">
<rect width="229.928" height="206" fill="white"/>
</clipPath>
</defs>
</svg>
